<mxfile host="app.diagrams.net" modified="2024-02-22T12:35:57.048Z" agent="Mozilla/5.0 (Windows NT 10.0; Win64; x64) AppleWebKit/537.36 (KHTML, like Gecko) Chrome/121.0.0.0 Safari/537.36" etag="oWlFndfzPghX0CFmI8g0" version="23.1.5" type="device">
  <diagram name="Página-1" id="xVmfiwWw1OAldpGcBjKm">
    <mxGraphModel dx="1257" dy="657" grid="1" gridSize="10" guides="1" tooltips="1" connect="1" arrows="1" fold="1" page="1" pageScale="1" pageWidth="827" pageHeight="1169" background="none" math="0" shadow="0">
      <root>
        <mxCell id="0" />
        <mxCell id="1" parent="0" />
        <mxCell id="5jQOIquHNeHSljCeJXpB-13" value="Estoquista" style="shape=umlActor;verticalLabelPosition=bottom;verticalAlign=top;html=1;" vertex="1" parent="1">
          <mxGeometry x="420" y="330" width="30" height="60" as="geometry" />
        </mxCell>
        <mxCell id="5jQOIquHNeHSljCeJXpB-14" value="Gerente de Setor" style="shape=umlActor;verticalLabelPosition=bottom;verticalAlign=top;html=1;" vertex="1" parent="1">
          <mxGeometry x="420" y="555" width="30" height="60" as="geometry" />
        </mxCell>
        <mxCell id="5jQOIquHNeHSljCeJXpB-15" value="Autorizar Compra de Produtos" style="ellipse;whiteSpace=wrap;html=1;" vertex="1" parent="1">
          <mxGeometry x="640" y="600" width="140" height="70" as="geometry" />
        </mxCell>
        <mxCell id="5jQOIquHNeHSljCeJXpB-16" value="Registrar Entrada de Produto" style="ellipse;whiteSpace=wrap;html=1;" vertex="1" parent="1">
          <mxGeometry x="90" y="290" width="140" height="70" as="geometry" />
        </mxCell>
        <mxCell id="5jQOIquHNeHSljCeJXpB-17" value="" style="endArrow=block;startArrow=block;endFill=1;startFill=1;html=1;rounded=0;exitX=0.5;exitY=0.5;exitDx=0;exitDy=0;exitPerimeter=0;entryX=1;entryY=0.5;entryDx=0;entryDy=0;" edge="1" parent="1" source="5jQOIquHNeHSljCeJXpB-13" target="5jQOIquHNeHSljCeJXpB-16">
          <mxGeometry width="160" relative="1" as="geometry">
            <mxPoint x="450" y="345" as="sourcePoint" />
            <mxPoint x="610" y="345" as="targetPoint" />
          </mxGeometry>
        </mxCell>
        <mxCell id="5jQOIquHNeHSljCeJXpB-32" value="Dados do Produto" style="edgeLabel;html=1;align=center;verticalAlign=middle;resizable=0;points=[];" vertex="1" connectable="0" parent="5jQOIquHNeHSljCeJXpB-17">
          <mxGeometry x="0.04" y="-4" relative="1" as="geometry">
            <mxPoint x="4" y="-1" as="offset" />
          </mxGeometry>
        </mxCell>
        <mxCell id="5jQOIquHNeHSljCeJXpB-19" value="" style="endArrow=block;startArrow=block;endFill=1;startFill=1;html=1;rounded=0;entryX=0;entryY=0.5;entryDx=0;entryDy=0;exitX=0.983;exitY=0.908;exitDx=0;exitDy=0;exitPerimeter=0;" edge="1" parent="1" source="5jQOIquHNeHSljCeJXpB-14" target="5jQOIquHNeHSljCeJXpB-15">
          <mxGeometry width="160" relative="1" as="geometry">
            <mxPoint x="450" y="620" as="sourcePoint" />
            <mxPoint x="650" y="645" as="targetPoint" />
          </mxGeometry>
        </mxCell>
        <mxCell id="5jQOIquHNeHSljCeJXpB-31" value="Dados do Produto" style="edgeLabel;html=1;align=center;verticalAlign=middle;resizable=0;points=[];" vertex="1" connectable="0" parent="5jQOIquHNeHSljCeJXpB-19">
          <mxGeometry x="0.0629" relative="1" as="geometry">
            <mxPoint x="2" y="4" as="offset" />
          </mxGeometry>
        </mxCell>
        <mxCell id="5jQOIquHNeHSljCeJXpB-20" value="Emitir Relátoro de Posição Semanal" style="ellipse;whiteSpace=wrap;html=1;" vertex="1" parent="1">
          <mxGeometry x="640" y="450" width="140" height="70" as="geometry" />
        </mxCell>
        <mxCell id="5jQOIquHNeHSljCeJXpB-21" value="Solicitar Compra de Produto" style="ellipse;whiteSpace=wrap;html=1;" vertex="1" parent="1">
          <mxGeometry x="90" y="450" width="140" height="70" as="geometry" />
        </mxCell>
        <mxCell id="5jQOIquHNeHSljCeJXpB-22" value="" style="endArrow=block;startArrow=block;endFill=1;startFill=1;html=1;rounded=0;entryX=1;entryY=0.3333333333333333;entryDx=0;entryDy=0;entryPerimeter=0;exitX=0.5;exitY=1;exitDx=0;exitDy=0;" edge="1" parent="1" source="5jQOIquHNeHSljCeJXpB-20" target="5jQOIquHNeHSljCeJXpB-14">
          <mxGeometry width="160" relative="1" as="geometry">
            <mxPoint x="240" y="620" as="sourcePoint" />
            <mxPoint x="400" y="620" as="targetPoint" />
          </mxGeometry>
        </mxCell>
        <mxCell id="5jQOIquHNeHSljCeJXpB-23" value="" style="endArrow=block;startArrow=block;endFill=1;startFill=1;html=1;rounded=0;exitX=0.5;exitY=1;exitDx=0;exitDy=0;entryX=0;entryY=0.3333333333333333;entryDx=0;entryDy=0;entryPerimeter=0;" edge="1" parent="1" source="5jQOIquHNeHSljCeJXpB-21" target="5jQOIquHNeHSljCeJXpB-14">
          <mxGeometry width="160" relative="1" as="geometry">
            <mxPoint x="230" y="555" as="sourcePoint" />
            <mxPoint x="410" y="620" as="targetPoint" />
          </mxGeometry>
        </mxCell>
        <mxCell id="5jQOIquHNeHSljCeJXpB-24" value="" style="endArrow=block;startArrow=block;endFill=1;startFill=1;html=1;rounded=0;entryX=0.5;entryY=0;entryDx=0;entryDy=0;exitX=1;exitY=1;exitDx=0;exitDy=0;exitPerimeter=0;" edge="1" parent="1" source="5jQOIquHNeHSljCeJXpB-13" target="5jQOIquHNeHSljCeJXpB-20">
          <mxGeometry width="160" relative="1" as="geometry">
            <mxPoint x="390" y="390" as="sourcePoint" />
            <mxPoint x="485" y="485" as="targetPoint" />
          </mxGeometry>
        </mxCell>
        <mxCell id="5jQOIquHNeHSljCeJXpB-25" value="" style="endArrow=block;startArrow=block;endFill=1;startFill=1;html=1;rounded=0;entryX=0.5;entryY=0;entryDx=0;entryDy=0;exitX=0;exitY=1;exitDx=0;exitDy=0;exitPerimeter=0;" edge="1" parent="1" source="5jQOIquHNeHSljCeJXpB-13" target="5jQOIquHNeHSljCeJXpB-21">
          <mxGeometry width="160" relative="1" as="geometry">
            <mxPoint x="255" y="300" as="sourcePoint" />
            <mxPoint x="160" y="415" as="targetPoint" />
          </mxGeometry>
        </mxCell>
        <mxCell id="5jQOIquHNeHSljCeJXpB-27" value="Dados do Produto" style="edgeLabel;html=1;align=center;verticalAlign=middle;resizable=0;points=[];" vertex="1" connectable="0" parent="5jQOIquHNeHSljCeJXpB-25">
          <mxGeometry x="0.3874" y="5" relative="1" as="geometry">
            <mxPoint x="39" y="-16" as="offset" />
          </mxGeometry>
        </mxCell>
        <mxCell id="5jQOIquHNeHSljCeJXpB-28" value="Posições Semanal" style="edgeLabel;html=1;align=center;verticalAlign=middle;resizable=0;points=[];" vertex="1" connectable="0" parent="1">
          <mxGeometry x="590.0049960831843" y="420.0047683873188" as="geometry" />
        </mxCell>
        <mxCell id="5jQOIquHNeHSljCeJXpB-29" value="Posições Semanal" style="edgeLabel;html=1;align=center;verticalAlign=middle;resizable=0;points=[];" vertex="1" connectable="0" parent="1">
          <mxGeometry x="580.0049960831843" y="550.0047683873188" as="geometry" />
        </mxCell>
        <mxCell id="5jQOIquHNeHSljCeJXpB-30" value="Dados do Produto" style="edgeLabel;html=1;align=center;verticalAlign=middle;resizable=0;points=[];" vertex="1" connectable="0" parent="1">
          <mxGeometry x="290.0049960831844" y="550.0047683873188" as="geometry" />
        </mxCell>
        <mxCell id="5jQOIquHNeHSljCeJXpB-33" value="Validar Nota Fiscal de Entrada de Produto" style="ellipse;whiteSpace=wrap;html=1;" vertex="1" parent="1">
          <mxGeometry x="365" y="210" width="140" height="70" as="geometry" />
        </mxCell>
        <mxCell id="5jQOIquHNeHSljCeJXpB-36" value="Consolidar Compras" style="ellipse;whiteSpace=wrap;html=1;" vertex="1" parent="1">
          <mxGeometry x="365" y="450" width="140" height="70" as="geometry" />
        </mxCell>
        <mxCell id="5jQOIquHNeHSljCeJXpB-40" value="Use" style="endArrow=open;endSize=12;dashed=1;html=1;rounded=0;entryX=0;entryY=0.5;entryDx=0;entryDy=0;exitX=1;exitY=0;exitDx=0;exitDy=0;" edge="1" parent="1" source="5jQOIquHNeHSljCeJXpB-16" target="5jQOIquHNeHSljCeJXpB-33">
          <mxGeometry width="160" relative="1" as="geometry">
            <mxPoint x="250" y="280" as="sourcePoint" />
            <mxPoint x="410" y="280" as="targetPoint" />
          </mxGeometry>
        </mxCell>
        <mxCell id="5jQOIquHNeHSljCeJXpB-41" value="Use" style="endArrow=open;endSize=12;dashed=1;html=1;rounded=0;entryX=0;entryY=0.5;entryDx=0;entryDy=0;exitX=1;exitY=0.5;exitDx=0;exitDy=0;" edge="1" parent="1" source="5jQOIquHNeHSljCeJXpB-21" target="5jQOIquHNeHSljCeJXpB-36">
          <mxGeometry width="160" relative="1" as="geometry">
            <mxPoint x="240" y="505" as="sourcePoint" />
            <mxPoint x="396" y="450" as="targetPoint" />
          </mxGeometry>
        </mxCell>
        <mxCell id="5jQOIquHNeHSljCeJXpB-43" value="Use" style="endArrow=open;endSize=12;dashed=1;html=1;rounded=0;exitX=0;exitY=0.5;exitDx=0;exitDy=0;entryX=1;entryY=0.5;entryDx=0;entryDy=0;" edge="1" parent="1" source="5jQOIquHNeHSljCeJXpB-20" target="5jQOIquHNeHSljCeJXpB-36">
          <mxGeometry width="160" relative="1" as="geometry">
            <mxPoint x="240" y="495" as="sourcePoint" />
            <mxPoint x="510" y="485" as="targetPoint" />
          </mxGeometry>
        </mxCell>
      </root>
    </mxGraphModel>
  </diagram>
</mxfile>
